HIERARCHY
ROOT Hips
{
  OFFSET 1.44925e-005 102.336 -0.101585
  CHANNELS 6 Xposition Yposition Zposition Zrotation Xrotation Yrotation
  JOINT LeftUpLeg
  {
    OFFSET 8.9458 -8.66707 0.101652
    CHANNELS 3 Zrotation Xrotation Yrotation
    JOINT LeftLeg
    {
      OFFSET 0 -44.4227 1.3727
      CHANNELS 3 Zrotation Xrotation Yrotation
      JOINT LeftFoot
      {
        OFFSET -0.253549 -42.0924 -1.46059
        CHANNELS 3 Zrotation Xrotation Yrotation
        JOINT LeftToes
        {
          OFFSET -0.04 -4.41509 8.4991
          CHANNELS 3 Zrotation Xrotation Yrotation
          End Site
          {
            OFFSET 0.08 -0.047448 9.77979
          }
        }
      }
    }
  }
  JOINT Spine
  {
    OFFSET 0 11.8905 0
    CHANNELS 3 Zrotation Xrotation Yrotation
    JOINT Spine1
    {
      OFFSET 0 25.6574 0.127663
      CHANNELS 3 Zrotation Xrotation Yrotation
      JOINT RightShoulder
      {
        OFFSET -8.99 -0.362252 -0.22
        CHANNELS 3 Zrotation Xrotation Yrotation
        JOINT RightArm
        {
          OFFSET -10.2827 -0.00338 0.322123
          CHANNELS 3 Zrotation Xrotation Yrotation
          JOINT RightForeArm
          {
            OFFSET -26.364 0.099144 -1.42434
            CHANNELS 3 Zrotation Xrotation Yrotation
            JOINT RightHand
            {
              OFFSET -22.0324 0.085362 1.02216
              CHANNELS 3 Zrotation Xrotation Yrotation
              End Site
              {
                OFFSET -13.3284 -0.6 1.50291
              }
            }
          }
        }
      }
      JOINT LeftShoulder1
      {
        OFFSET 8.99 -0.362252 -0.22
        CHANNELS 3 Zrotation Xrotation Yrotation
        JOINT LeftArm
        {
          OFFSET 10.2827 -0.00337999 0.322123
          CHANNELS 3 Zrotation Xrotation Yrotation
          JOINT LeftForeArm
          {
            OFFSET 26.2597 0.099144 -1.42434
            CHANNELS 3 Zrotation Xrotation Yrotation
            JOINT LeftHand
            {
              OFFSET 22.0902 0.085362 1.02216
              CHANNELS 3 Zrotation Xrotation Yrotation
              End Site
              {
                OFFSET 13.419 -0.6 1.50291
              }
            }
          }
        }
      }
      JOINT Head
      {
        OFFSET 0 8.73416 0.011341
        CHANNELS 3 Zrotation Xrotation Yrotation
        End Site
        {
          OFFSET -0.29 12.7742 2.51395
        }
      }
    }
  }
  JOINT RightUpLeg
  {
    OFFSET -8.9458 -8.66707 0.101652
    CHANNELS 3 Zrotation Xrotation Yrotation
    JOINT RightLeg
    {
      OFFSET 0 -44.4227 1.3727
      CHANNELS 3 Zrotation Xrotation Yrotation
      JOINT RightFoot
      {
        OFFSET 0.253549 -42.0924 -1.46059
        CHANNELS 3 Zrotation Xrotation Yrotation
        JOINT RightToes
        {
          OFFSET 0.04 -4.41509 8.4991
          CHANNELS 3 Zrotation Xrotation Yrotation
          End Site
          {
            OFFSET -0.08 -0.137448 9.77979
          }
        }
      }
    }
  }
}
MOTION
Frames:	15
Frame Time:	0.0333333
189.283 103.122 3.17066 -2.68497 -0.0266097 -97.2 -0.589533 0.851896 3.16354 -1.14433 8.14234 25.9809 -1.73805 -10.7746 0.00620018 -1.34685e-009 8.75229e-006 -1.46827e-008 1.29378 6.1656 -0.509847 -1.82277 -4.28466 -0.162652 35.1139 1.62661 -0.0951216 43.5177 -13.1591 -0.157851 6.47269 30.6067 12.6489 -15.0344 9.14289 0.688345 -42.9097 3.47004 -3.51558 -30.6454 -15.796 -2.98789 -8.94049 45.0808 -7.86003 5.82328 9.61819 -0.917488 -0.553523 -3.51826 0.867266 -0.0424707 1.60959 -4.09308 1.25868 8.53123 -14.9912 1.7865 -12.4458 -0.122588 0.0462048 0.000530889 0.662642 
189.298 103.122 3.18704 -2.68684 -0.00865059 -97.1061 -0.587756 0.825317 3.14224 -1.12105 8.1664 25.9105 -1.70911 -10.7746 0.00620018 -1.34685e-009 8.75229e-006 -1.46827e-008 1.33181 6.25872 -0.558421 -1.82203 -4.36731 -0.211237 34.994 1.62005 -0.0951213 43.6531 -13.2896 -0.129242 6.34672 31.1412 12.6648 -14.3409 9.14223 0.977786 -42.8951 3.47248 -3.52274 -30.5853 -14.9242 -2.70963 -8.46993 44.2201 -8.63299 5.82328 9.61819 -0.917488 -0.850436 -4.10384 0.878878 -0.0260222 1.61613 -4.09041 1.26031 8.5243 -15.0968 1.82605 -12.4222 -0.122577 0.0462048 0.000530889 0.662642 
189.32 103.122 3.21694 -2.71247 0.0213842 -96.9736 -0.588786 0.806824 3.12321 -1.09136 8.21515 25.7964 -1.70294 -10.7759 0.0062002 -1.34685e-009 8.75229e-006 -1.46827e-008 1.35237 6.3893 -0.582526 -1.73342 -4.43108 -0.24827 34.6776 1.60618 -0.094983 43.9445 -13.4796 -0.1169 6.09234 31.9469 12.7703 -13.3037 9.1404 1.51246 -42.9487 3.4835 -3.53673 -30.5348 -14.3583 -2.50945 -8.10849 43.5927 -9.20355 5.82328 9.61819 -0.917488 -1.0684 -4.65195 0.910042 -0.00754867 1.65915 -4.09019 1.27041 8.49446 -15.2257 1.85052 -12.4019 -0.122568 0.0462048 0.000530889 0.662642 
189.344 103.122 3.25746 -2.71474 0.0213754 -96.9022 -0.613236 0.777767 3.09476 -1.0813 8.22953 25.7598 -1.68896 -10.7746 0.00620018 -1.34685e-009 8.75229e-006 -1.46827e-008 1.40099 6.36802 -0.555805 -1.73934 -4.37558 -0.218658 34.5381 1.60345 -0.0905348 44.0361 -13.4805 -0.133606 5.94275 32.226 12.8906 -12.8166 9.13883 1.85365 -42.9951 3.48573 -3.53407 -30.5241 -14.6881 -2.60233 -8.16187 43.8644 -9.06156 5.82328 9.61819 -0.917488 -0.824076 -4.57762 0.995984 -0.0486371 1.63807 -4.13942 1.31233 8.52391 -15.2376 1.83885 -12.435 -0.122583 0.0462048 0.000530889 0.662642 
189.373 103.122 3.30703 -2.66308 -0.0205526 -96.8835 -0.691738 0.708035 3.02065 -1.07302 8.18976 25.83 -1.63512 -10.7493 0.00619966 -1.34685e-009 8.75229e-006 -1.46827e-008 1.5327 6.25288 -0.530676 -1.96591 -4.34339 -0.156214 34.7639 1.61725 -0.0759478 43.7867 -13.2576 -0.183803 5.98096 31.8794 12.9511 -12.9032 9.13867 1.8586 -42.9529 3.47116 -3.51119 -30.5163 -15.2231 -2.75937 -8.35134 44.4408 -8.69524 5.82328 9.61819 -0.917488 -0.153053 -3.99296 1.16702 -0.157388 1.49349 -4.24236 1.37704 8.66137 -15.1566 1.85555 -12.4904 -0.12261 0.0462048 0.000530889 0.662642 
189.405 103.119 3.35142 -2.60964 -0.0621985 -96.8581 -1.00479 0.858365 5.20918 -1.14026 7.94141 28.0976 -1.52661 -10.6542 1.62391 0.0161076 0.0868364 1.59546 1.76486 5.95238 1.76217 -2.05737 -4.48048 2.16512 33.4258 4.03061 1.20979 42.4298 -10.7911 0.0282127 3.31172 33.7554 14.365 -15.0953 10.8366 2.42144 -41.6714 1.03141 -2.50742 -28.9282 -17.9632 -2.5222 -6.1943 42.8543 -8.99168 8.44207 6.56692 -1.02943 0.60423 -3.44901 3.58703 -0.279613 1.36684 -2.04906 0.881078 9.1521 -12.7311 2.81161 -12.9426 2.68839 0.113784 0.0465374 3.39183 
189.43 103.117 3.38033 -2.61636 -0.0650649 -96.8063 0.550496 -1.59114 -19.0075 0.291645 9.84997 4.40995 -2.40147 -10.9441 -15.6536 -0.402398 -0.809412 -15.4244 1.36414 8.26878 -22.7059 -2.83522 -3.607 -22.1403 44.806 -21.0681 -13.3209 52.6142 -34.8705 -3.32425 27.024 8.65386 2.81121 6.00026 -7.27168 -4.03598 -50.2034 26.2594 -14.5186 -44.2115 7.48818 -5.78961 -35.5175 63.8425 0.539899 -20.1815 39.1162 0.305395 -0.896284 -3.36612 -20.8336 -0.130444 0.861212 -26.2278 5.31871 5.43139 -38.1791 -4.56096 -7.42516 -26.8449 -0.826774 -0.400902 -25.7202 
189.445 103.116 3.40619 -2.66091 -0.0463455 -96.7326 -1.65427 -1.26806 -81.054 5.84989 6.77328 -56.36 -4.314 -6.76505 -59.486 -3.44198 -1.65308 -59.0719 4.10526 1.55219 -84.7584 -1.46931 -0.223489 -84.2744 4.74116 -42.6254 -87.4851 -39.612 -78.1154 -124.654 39.3367 -52.2436 -35.2878 34.7168 -49.0855 -32.3053 0.380692 50.0175 -94.2376 -48.6031 68.2882 -41.6688 117.844 58.9108 144.924 92.8733 57.3138 173.575 -4.53989 -0.506089 -83.3728 -1.01733 0.0026506 -88.1632 7.19965 -0.0727456 -103.014 -5.05445 -0.719373 -101.463 -4.23324 0.305272 -100.313 
189.454 103.116 3.44364 -2.67183 -0.0468694 -96.6185 -1.51281 1.24884 9.80958 -1.36622 7.62507 32.206 -1.33891 -10.5846 4.85926 0.0338345 0.259684 4.78643 2.04208 5.59795 6.30142 -1.82337 -4.73939 6.70391 30.1602 8.82137 3.79206 39.9791 -6.36953 0.61395 -2.445 38.1803 17.2744 -19.4094 14.2359 3.58317 -38.8004 -3.84924 -0.538622 -25.8622 -23.2387 -1.87991 -2.05148 39.0324 -9.55983 13.6432 0.464995 -1.2589 0.365029 -4.11281 7.45995 -0.337168 1.40755 2.54175 -0.335525 9.92863 -8.24758 4.77463 -13.7386 8.34028 0.235852 0.137143 8.85023 
189.467 103.115 3.48203 -2.63784 -0.0754194 -96.4638 -0.804271 0.500268 2.94096 -1.11901 8.32787 25.4959 -1.55694 -10.8 0.00699393 -1.29914e-009 8.75236e-006 -1.47081e-008 1.71442 6.69062 -0.606633 -2.39236 -4.97578 -0.174369 35.4362 1.63935 -0.0793793 43.2004 -12.8738 -0.386095 6.22224 31.1105 12.8887 -13.319 9.13886 1.60564 -42.7665 3.44274 -3.48236 -30.4391 -15.0114 -2.37449 -8.42207 44.2181 -8.65668 5.82328 9.61819 -0.917488 -0.0562487 -4.19941 0.569964 -0.307322 1.23575 -4.31439 1.38024 9.05495 -15.5341 2.03724 -12.5928 -0.115498 0.0462048 0.000530889 0.662642 
189.486 103.111 3.50553 -2.6197 -0.106269 -96.3149 -0.838254 0.437485 2.90454 -1.12069 8.36327 25.3774 -1.60927 -10.8052 0.00679936 -1.29914e-009 8.75236e-006 -1.47081e-008 1.64997 6.87519 -0.606261 -2.3432 -5.19028 -0.186387 35.3352 1.63576 -0.0795802 43.3097 -12.6422 -0.561702 6.16532 30.951 13.0232 -13.4766 9.11373 1.74969 -42.9901 3.46583 -3.49471 -30.1406 -14.2168 -2.15477 -8.03207 43.7602 -9.272 5.82328 9.61819 -0.917488 0.127789 -4.16538 0.660295 -0.356767 1.17645 -4.35467 1.40226 9.13919 -15.6514 2.11303 -12.6711 -0.111316 0.0462048 0.000530889 0.662642 
189.501 103.104 3.52481 -2.65179 -0.112827 -96.201 -0.828773 0.406486 2.93693 -1.16477 8.46697 25.2419 -1.59839 -10.8707 0.00626165 -1.29914e-009 8.75236e-006 -1.47081e-008 1.5131 6.84995 -0.566907 -2.16158 -5.01248 -0.172832 35.2429 1.62991 -0.0846374 43.4028 -12.7306 -0.487323 6.13777 31.2416 12.9764 -13.4178 9.10294 1.88324 -43.189 3.48914 -3.51115 -29.9785 -14.1663 -2.27168 -8.02433 43.8238 -9.28571 5.82328 9.61819 -0.917488 0.121379 -4.32232 0.607932 -0.372488 1.17805 -4.39132 1.41262 9.20703 -15.7535 2.08931 -12.7435 -0.111716 0.0462048 0.000530889 0.662642 
189.506 103.095 3.55815 -2.69787 -0.0920626 -96.1195 -0.803826 0.382272 2.97957 -1.20739 8.60799 25.1349 -1.57607 -10.9766 0.00476554 -1.29914e-009 8.75236e-006 -1.47081e-008 1.54699 6.80178 -0.54726 -2.17735 -4.81398 -0.143572 35.3798 1.62671 -0.0932643 43.314 -12.9112 -0.338043 6.23951 31.4325 12.7867 -13.4539 9.11371 1.76317 -43.1402 3.48559 -3.51147 -30.0508 -14.4095 -2.42035 -8.1455 43.9886 -9.09962 5.82328 9.61819 -0.917488 0.176538 -4.63301 0.241556 -0.390202 1.19695 -4.45577 1.44388 9.28568 -15.77 2.05815 -12.7497 -0.112882 0.0462048 0.000530889 0.662642 
189.507 103.081 3.60236 -2.73028 -0.0680136 -96.105 -0.79662 0.340447 2.98693 -1.22215 8.77924 25.117 -1.6676 -11.1212 0.00087567 -1.29914e-009 8.75236e-006 -1.47081e-008 1.68395 6.9686 -0.510694 -2.29805 -4.91993 -0.0810719 35.51 1.62473 -0.102496 43.221 -12.5821 -0.410856 6.25193 30.815 12.9551 -13.6321 9.12935 1.51841 -43.0139 3.47314 -3.50582 -30.1971 -14.511 -2.3956 -8.16134 44.0087 -9.06428 5.82328 9.61819 -0.917488 0.26205 -4.8365 0.100289 -0.432267 1.17157 -4.52793 1.48385 9.43322 -15.6591 2.08377 -12.798 -0.111096 0.0462048 0.000530889 0.662642 
189.506 103.052 3.65896 -2.79596 -0.0610168 -96.2007 -0.841951 0.287381 2.95441 -1.21233 9.07625 25.2574 -1.79931 -11.3897 -0.00576042 -1.29914e-009 8.75236e-006 -1.47081e-008 1.70215 7.22329 -0.417961 -2.25084 -5.02346 0.0125887 35.4054 1.62447 -0.104999 43.3035 -11.5492 -0.568096 6.01322 29.4811 13.6854 -13.6473 9.14026 1.41077 -43.0407 3.47829 -3.51205 -30.2913 -14.7659 -2.42358 -8.25215 44.1774 -8.90535 5.82328 9.61819 -0.917488 0.256806 -5.00128 0.326924 -0.515196 1.10971 -4.60907 1.50311 9.70971 -15.3998 2.2066 -12.9834 -0.10301 0.0462048 0.000530889 0.662642 
